<?xml version="1.0" encoding="UTF-8"?>
<svg width="1200pt" height="1200pt" version="1.1" viewBox="0 0 1200 1200" xmlns="http://www.w3.org/2000/svg">
 <g>
  <path d="m557.72 580.13 42.277-42.277 42.277 42.277c1.3008 1.3008 3.0078 1.9531 4.7148 1.9531 1.707 0 3.4102-0.65234 4.7148-1.9531 2.6055-2.6055 2.6055-6.8242 0-9.4258l-46.992-46.992c-2.6055-2.6055-6.8242-2.6055-9.4258 0l-46.992 46.992c-2.6055 2.6055-2.6055 6.8242 0 9.4258 2.6016 2.6055 6.8203 2.6055 9.4258 0z"/>
  <path d="m651.71 619.87c-2.6055-2.6055-6.8242-2.6055-9.4258 0l-42.281 42.277-42.277-42.277c-2.6055-2.6055-6.8242-2.6055-9.4258 0-2.6055 2.6055-2.6055 6.8242 0 9.4258l46.992 46.992c1.3008 1.3008 3.0039 1.9531 4.7109 1.9531s3.4102-0.65234 4.7148-1.9531l46.992-46.992c2.6016-2.6055 2.6016-6.8242 0-9.4258z"/>
  <path d="m1070 583.32c-9.1992 0-16.688 7.4883-16.688 16.68s7.4883 16.68 16.688 16.68 16.684-7.4883 16.684-16.68-7.4844-16.68-16.684-16.68zm-3.3555 16.68c0-1.8477 1.5039-3.3477 3.3516-3.3477 1.8516 0 3.3555 1.5 3.3555 3.3477 0 3.6992-6.707 3.6992-6.707 0z"/>
  <path d="m1119.5 600c0-27.316-22.227-49.543-49.543-49.543-25.035 0-45.57 18.73-48.863 42.879h-94.469c-2.9219-10.238-12.258-17.801-23.422-17.801-11.16 0-20.5 7.5586-23.426 17.797h-95.902c-2.9258-10.238-12.262-17.801-23.426-17.801-11.16 0.003906-20.496 7.5625-23.418 17.801h-105.25l-27.082-27.082c-2.6055-2.6055-6.8242-2.6055-9.4258 0l-27.086 27.082h-105.25c-2.9219-10.238-12.258-17.801-23.422-17.801-11.16 0.003906-20.5 7.5625-23.422 17.801h-95.902c-2.9258-10.238-12.262-17.801-23.426-17.801-11.164 0.003906-20.5 7.5625-23.422 17.801h-94.469c-3.293-24.145-23.828-42.879-48.863-42.879-27.316 0-49.543 22.227-49.543 49.543s22.227 49.543 49.543 49.543c25.035 0 45.57-18.73 48.863-42.879h94.469c2.9219 10.238 12.258 17.801 23.418 17.801 11.164 0.003906 20.504-7.5586 23.43-17.793h95.902c2.9258 10.238 12.262 17.801 23.426 17.801 11.16-0.003906 20.496-7.5664 23.418-17.801h105.25l27.082 27.082c1.3047 1.3008 3.0078 1.9531 4.7148 1.9531s3.4102-0.65234 4.7148-1.9531l27.082-27.082h105.25c2.9219 10.238 12.258 17.801 23.418 17.801 11.164-0.003906 20.504-7.5664 23.426-17.801h95.902c2.9258 10.238 12.262 17.801 23.426 17.801 11.164-0.003906 20.496-7.5664 23.422-17.801h94.469c3.293 24.145 23.828 42.879 48.863 42.879 27.316-0.003906 49.543-22.23 49.543-49.547zm-989.48 36.211c-19.969 0-36.211-16.25-36.211-36.211s16.242-36.211 36.211-36.211c19.961 0 36.203 16.25 36.203 36.211 0.003906 19.961-16.242 36.211-36.203 36.211zm166.75-25.078c-6.1328 0-11.125-5-11.125-11.133s4.9922-11.133 11.125-11.133c6.1406 0 11.133 5 11.133 11.133s-4.9961 11.133-11.133 11.133zm142.75 0c-6.1406 0-11.133-5-11.133-11.133s4.9922-11.133 11.133-11.133c6.1328 0 11.125 5 11.125 11.133s-4.9922 11.133-11.125 11.133zm160.46 8.4766-19.609-19.609 19.609-19.609 19.609 19.609zm160.46-8.4766c-6.1328 0-11.125-5-11.125-11.133s4.9922-11.133 11.125-11.133c6.1406 0 11.133 5 11.133 11.133s-4.9922 11.133-11.133 11.133zm142.75 0c-6.1406 0-11.133-5-11.133-11.133s4.9922-11.133 11.133-11.133c6.1328 0 11.125 5 11.125 11.133 0.003906 6.1328-4.9922 11.133-11.125 11.133zm166.75 25.078c-19.961 0-36.203-16.25-36.203-36.211s16.242-36.211 36.203-36.211c19.969 0 36.211 16.25 36.211 36.211s-16.246 36.211-36.211 36.211z"/>
  <path d="m130.03 583.32c-9.1992 0-16.684 7.4883-16.684 16.68s7.4844 16.68 16.684 16.68 16.688-7.4883 16.688-16.68-7.4883-16.68-16.688-16.68zm-3.3516 16.68c0-1.8477 1.5039-3.3477 3.3516-3.3477 1.8516 0 3.3555 1.5 3.3555 3.3477 0 3.6992-6.707 3.6992-6.707 0z"/>
 </g>
</svg>
